<?xml version="1.0" standalone="no"?>
<!DOCTYPE svg PUBLIC "-//W3C//DTD SVG 20010904//EN"
 "http://www.w3.org/TR/2001/REC-SVG-20010904/DTD/svg10.dtd">
<svg version="1.0" xmlns="http://www.w3.org/2000/svg"
 width="1358.000000pt" height="379.000000pt" viewBox="0 0 1358.000000 379.000000"
 preserveAspectRatio="xMidYMid meet">

<g transform="translate(0.000000,379.000000) scale(0.100000,-0.100000)"
fill="#000000" stroke="none">
<path d="M2293 3126 c-93 -30 -191 -127 -252 -249 l-42 -82 3 -420 3 -419 40
-7 c52 -9 497 -32 600 -32 211 2 430 123 517 285 19 36 23 58 23 138 0 86 -3
100 -29 147 -100 180 -318 236 -475 123 -24 -18 -44 -30 -46 -28 -2 2 11 26
30 53 141 207 -5 490 -259 502 -42 2 -88 -3 -113 -11z"/>
<path d="M1350 3121 c-83 -27 -162 -96 -199 -176 -47 -101 -35 -234 29 -323
16 -23 28 -42 26 -42 -2 0 -29 16 -61 35 -65 39 -119 50 -209 43 -75 -6 -137
-36 -192 -94 -67 -69 -88 -124 -89 -224 0 -149 55 -226 219 -305 164 -80 319
-104 756 -117 l64 -2 87 365 c55 229 85 375 82 394 -11 63 -37 142 -63 196
-29 56 -103 158 -126 172 -7 4 -19 14 -27 21 -37 38 -103 60 -187 63 -47 1
-96 -1 -110 -6z"/>
<path d="M3890 2450 l0 -670 135 0 135 0 0 290 0 290 480 0 480 0 0 -290 0
-290 135 0 135 0 0 670 0 670 -135 0 -135 0 0 -265 0 -265 -480 0 -480 0 0
265 0 265 -135 0 -135 0 0 -670z"/>
<path d="M6130 2450 l0 -670 135 0 135 0 0 670 0 670 -135 0 -135 0 0 -670z"/>
<path d="M7324 3106 c-95 -23 -149 -71 -175 -155 -20 -64 -23 -316 -5 -400 20
-95 47 -135 116 -169 l55 -27 463 -3 462 -3 0 -169 0 -170 -455 0 -455 0 0
103 0 104 -125 -26 -125 -26 0 -56 c0 -127 34 -229 92 -272 69 -51 76 -52 618
-52 l505 0 53 24 c112 50 137 118 137 371 0 198 -14 265 -65 324 -62 71 -62
70 -580 76 l-465 5 -3 153 -3 152 436 0 435 0 0 -91 c0 -87 1 -91 20 -86 11 3
63 16 116 28 l97 24 -6 85 c-10 161 -64 229 -205 259 -76 16 -870 14 -938 -3z"/>
<path d="M9384 3106 c-95 -23 -147 -69 -176 -155 -16 -50 -24 -861 -8 -950 14
-80 40 -133 82 -164 70 -52 71 -52 688 -52 l575 0 53 24 c65 29 97 66 119 139
16 51 18 105 18 497 0 471 -3 505 -51 577 -28 43 -76 71 -152 87 -77 16 -1079
14 -1148 -3z m1086 -656 l0 -440 -505 0 -505 0 0 440 0 440 505 0 505 0 0
-440z"/>
<path d="M11460 2450 l0 -670 125 0 125 0 -2 496 -3 495 40 -43 c22 -24 264
-247 539 -495 l499 -453 78 0 79 0 0 670 0 670 -126 0 -125 0 3 -480 3 -479
-55 54 c-30 30 -269 245 -530 479 l-475 425 -87 1 -88 0 0 -670z"/>
<path d="M1926 2610 c-4 -19 -46 -192 -92 -385 -47 -192 -87 -358 -90 -367 -4
-15 5 -18 78 -20 l83 -3 0 -368 c0 -202 2 -367 5 -367 3 0 16 46 28 103 13 56
53 231 91 390 l67 287 -55 0 c-31 0 -66 3 -78 6 l-23 6 -2 377 c-2 237 -6 363
-12 341z"/>
<path d="M1101 1800 c-184 -39 -357 -153 -417 -276 -87 -178 12 -403 200 -456
94 -26 213 -6 283 48 41 31 51 27 23 -9 -75 -95 -87 -234 -29 -348 23 -46 101
-123 145 -144 83 -39 206 -39 290 1 54 26 129 98 173 169 75 118 72 92 69 565
l-3 425 -200 11 c-343 20 -488 23 -534 14z"/>
<path d="M2146 1802 c-11 -19 -168 -696 -167 -726 0 -119 99 -316 201 -403 73
-62 117 -78 215 -78 74 0 98 5 138 24 59 29 130 100 158 158 45 92 34 235 -23
314 -31 42 -31 64 -1 37 74 -65 215 -86 316 -48 66 25 144 95 177 159 43 86
43 206 0 292 -52 100 -213 204 -369 238 -28 6 -144 15 -259 21 -114 5 -246 13
-293 16 -57 4 -89 3 -93 -4z"/>
<path d="M3880 1400 l0 -40 4535 0 4535 0 0 40 0 40 -4535 0 -4535 0 0 -40z"/>
<path d="M3995 1043 c-88 -22 -130 -142 -85 -241 25 -55 72 -78 130 -62 22 6
42 15 45 20 11 18 25 10 25 -15 0 -38 -21 -75 -46 -81 -28 -7 -101 -1 -127 11
-16 6 -18 4 -15 -16 2 -19 11 -25 43 -31 43 -7 99 -1 128 14 10 5 27 24 37 41
18 28 20 51 20 195 0 155 -1 162 -20 162 -11 0 -20 -4 -20 -9 0 -5 -17 -3 -37
5 -40 14 -47 15 -78 7z m93 -39 c21 -6 22 -11 22 -105 l0 -98 -30 -16 c-36
-19 -90 -19 -115 -1 -20 15 -33 113 -21 161 14 56 69 79 144 59z"/>
<path d="M4866 1040 c-119 -36 -144 -226 -39 -291 64 -40 193 -26 193 21 0 17
-2 18 -27 4 -16 -7 -50 -14 -76 -14 -40 0 -54 5 -78 29 -16 16 -29 36 -29 44
0 9 -3 22 -6 31 -5 14 8 16 110 16 l116 0 0 30 c0 93 -79 155 -164 130z m97
-47 c8 -10 19 -30 22 -45 l7 -28 -95 0 -96 0 11 30 c5 17 20 37 31 45 30 21
100 19 120 -2z"/>
<path d="M5333 1039 c-101 -30 -133 -191 -54 -270 43 -43 94 -54 166 -36 39 9
51 17 53 34 3 22 2 22 -32 8 -19 -8 -56 -15 -81 -15 -38 0 -52 5 -76 29 -19
20 -29 40 -29 60 l0 31 110 0 110 0 0 38 c-1 90 -79 148 -167 121z m106 -55
c12 -15 21 -35 21 -45 0 -17 -9 -19 -90 -19 -84 0 -90 1 -90 20 0 65 117 97
159 44z"/>
<path d="M5817 1026 c-44 -22 -47 -22 -47 -5 0 12 -7 19 -20 19 -19 0 -20 -7
-20 -155 0 -148 1 -155 20 -155 19 0 20 7 20 125 l0 124 30 16 c38 19 94 19
114 -1 13 -12 16 -40 16 -140 0 -117 1 -124 20 -124 19 0 20 7 20 126 0 71 -5
134 -11 146 -9 17 -64 48 -87 48 -5 0 -30 -11 -55 -24z"/>
<path d="M6649 1041 c-71 -22 -109 -76 -109 -156 0 -90 45 -146 129 -160 54
-9 125 15 129 44 3 22 3 22 -27 7 -16 -9 -52 -16 -79 -16 -53 0 -85 21 -103
67 -20 52 -18 53 107 53 l117 0 -7 47 c-7 51 -26 87 -53 101 -29 15 -76 21
-104 13z m95 -53 c9 -12 16 -33 16 -45 0 -22 -3 -23 -91 -23 -89 0 -90 0 -84
23 14 45 45 67 96 67 38 0 51 -5 63 -22z"/>
<path d="M7146 1040 c-15 -5 -37 -17 -47 -26 -18 -16 -19 -16 -19 4 0 17 -6
22 -25 22 l-25 0 0 -155 0 -155 25 0 25 0 0 124 c0 120 1 124 25 140 32 21 98
21 116 0 9 -11 15 -57 17 -140 4 -115 6 -124 24 -124 19 0 19 6 16 130 -3 123
-4 131 -28 154 -30 29 -64 38 -104 26z"/>
<path d="M7606 1040 c-63 -20 -96 -73 -96 -157 0 -102 56 -158 155 -156 66 1
105 17 105 43 0 19 -1 20 -30 5 -33 -17 -112 -20 -141 -5 -22 12 -49 61 -49
90 0 19 6 20 114 20 l115 0 -5 38 c-12 83 -39 116 -105 126 -19 3 -47 1 -63
-4z m104 -50 c11 -11 20 -31 20 -45 0 -25 -1 -25 -90 -25 -56 0 -90 4 -90 10
0 18 29 68 42 73 34 14 99 6 118 -13z"/>
<path d="M8453 1039 c-50 -14 -86 -70 -91 -138 -7 -102 40 -167 120 -165 20 1
49 9 64 19 32 21 38 15 30 -28 -10 -53 -35 -70 -98 -65 -29 2 -61 8 -71 13
-16 6 -18 4 -15 -16 4 -28 51 -42 113 -33 99 15 115 50 115 259 0 148 -1 155
-20 155 -11 0 -20 -4 -20 -9 0 -5 -17 -3 -37 5 -44 15 -47 15 -90 3z m108 -39
c17 -9 19 -22 19 -105 l0 -94 -30 -16 c-45 -23 -106 -20 -124 8 -37 55 -27
171 17 202 25 17 89 20 118 5z"/>
<path d="M9757 1036 c-48 -18 -62 -29 -81 -70 -47 -99 3 -222 97 -240 50 -9
121 15 125 43 3 22 3 22 -27 7 -46 -24 -107 -21 -135 7 -44 44 -41 172 5 210
26 21 90 22 129 2 29 -15 30 -14 30 5 0 35 -85 57 -143 36z"/>
<path d="M10187 1040 c-40 -12 -57 -29 -78 -75 -35 -76 -12 -183 46 -221 34
-22 106 -22 140 0 87 57 89 225 3 279 -31 20 -77 27 -111 17z m104 -56 c21
-22 24 -35 24 -99 0 -64 -3 -77 -24 -99 -30 -32 -87 -35 -122 -7 -22 17 -24
27 -24 104 0 104 15 127 80 127 32 0 47 -6 66 -26z"/>
<path d="M10700 1039 c-13 -6 -33 -17 -42 -26 -17 -15 -18 -15 -18 5 0 17 -6
22 -25 22 l-25 0 0 -155 0 -155 25 0 25 0 0 124 c0 118 1 126 22 140 12 9 42
16 65 16 57 0 63 -17 63 -166 0 -107 1 -114 20 -114 19 0 20 7 20 123 l0 124
33 17 c18 10 47 16 67 14 50 -5 60 -31 60 -165 0 -106 1 -113 20 -113 19 0 20
7 20 120 0 141 -11 172 -65 190 -32 11 -42 9 -91 -15 -49 -24 -57 -25 -67 -11
-11 14 -59 37 -75 35 -4 0 -18 -5 -32 -10z"/>
<path d="M11371 1030 c-52 -24 -51 -24 -51 -5 0 8 -9 15 -20 15 -19 0 -20 -7
-20 -210 0 -203 1 -210 20 -210 18 0 20 7 20 60 0 33 3 60 8 60 4 0 24 -5 44
-10 51 -15 110 10 140 59 18 28 23 50 23 101 -1 80 -23 126 -70 146 -43 18
-41 18 -94 -6z m98 -46 c40 -50 23 -200 -24 -218 -21 -8 -89 -8 -109 0 -13 5
-16 24 -16 110 0 102 0 103 28 118 45 25 97 20 121 -10z"/>
<path d="M11835 1045 c-5 -2 -22 -6 -37 -9 -20 -5 -28 -13 -28 -27 0 -16 4
-19 18 -14 32 14 119 17 141 6 25 -14 28 -56 5 -65 -9 -3 -31 -6 -49 -6 -78 0
-135 -43 -135 -102 0 -52 15 -77 56 -94 36 -15 75 -11 109 12 25 18 35 18 35
-1 0 -9 9 -15 25 -15 l25 0 0 110 c0 117 -13 170 -47 188 -20 11 -103 23 -118
17z m115 -200 c0 -50 -2 -56 -30 -70 -62 -32 -130 -12 -130 40 0 56 39 84 118
85 l42 0 0 -55z"/>
<path d="M12337 1026 c-44 -22 -47 -22 -47 -5 0 14 -7 19 -25 19 l-25 0 0
-155 0 -155 25 0 25 0 0 125 0 124 31 16 c16 9 47 15 67 13 52 -4 62 -29 62
-165 0 -106 1 -113 20 -113 19 0 20 7 20 120 0 138 -11 171 -61 189 -41 14
-38 15 -92 -13z"/>
<path d="M4400 885 l0 -155 25 0 25 0 0 114 c0 107 1 116 22 130 13 9 43 16
70 16 41 0 48 3 48 19 0 32 -36 35 -91 8 l-49 -24 0 24 c0 18 -5 23 -25 23
l-25 0 0 -155z"/>
<path d="M8000 885 c0 -148 1 -155 20 -155 19 0 20 7 20 113 l0 113 29 17 c16
9 48 17 71 17 37 0 41 2 38 23 -3 19 -8 22 -38 19 -19 -1 -47 -11 -62 -22 -35
-26 -38 -25 -38 5 0 18 -5 25 -20 25 -19 0 -20 -7 -20 -155z"/>
<path d="M8840 1037 c0 -3 27 -69 59 -147 l60 -143 -29 -63 -29 -64 23 0 c20
0 32 23 104 193 44 105 84 200 88 210 5 15 3 18 -16 15 -18 -2 -31 -24 -68
-116 -25 -61 -49 -109 -53 -105 -5 5 -28 55 -52 113 -34 83 -48 106 -65 108
-12 2 -22 1 -22 -1z"/>
<path d="M12762 895 l61 -145 -23 -53 c-12 -28 -24 -58 -27 -65 -4 -10 1 -13
17 -10 20 2 33 25 80 138 32 74 71 168 88 208 31 72 31 72 9 72 -19 0 -29 -17
-66 -108 -24 -59 -47 -111 -51 -115 -4 -4 -29 44 -55 107 -41 99 -51 116 -70
116 -22 0 -20 -6 37 -145z"/>
</g>
</svg>
